M48
; DRILL file {KiCad (5.1.2-1)-1} date 
; FORMAT={-:-/ absolute / metric / decimal}
; #@! TF.CreationDate,2019-06-16T18:54:52+09:00
; #@! TF.GenerationSoftware,Kicad,Pcbnew,(5.1.2-1)-1
; #@! TF.FileFunction,NonPlated,1,2,NPTH
FMAT,2
METRIC
T1C1.700
T2C1.750
T3C1.900
T4C3.000
T5C3.048
T6C3.988
T7C4.000
T8C4.800
%
G90
G05
T1
X90.17Y-114.3
X100.33Y-114.3
X109.22Y-123.825
X119.38Y-123.825
X52.07Y-95.25
X62.23Y-95.25
X52.07Y-133.35
X62.23Y-133.35
X52.07Y-76.2
X62.23Y-76.2
X71.12Y-133.35
X81.28Y-133.35
X71.12Y-76.2
X81.28Y-76.2
X52.07Y-114.3
X62.23Y-114.3
X71.12Y-152.4
X81.28Y-152.4
X71.12Y-95.25
X81.28Y-95.25
X109.22Y-95.25
X119.38Y-95.25
X90.17Y-133.35
X100.33Y-133.35
X90.17Y-76.2
X100.33Y-76.2
X71.12Y-114.3
X81.28Y-114.3
X52.07Y-152.4
X62.23Y-152.4
X109.22Y-76.2
X119.38Y-76.2
X90.17Y-152.4
X100.33Y-152.4
X90.17Y-95.25
X100.33Y-95.25
T2
X61.595Y-171.45
X100.33Y-171.45
X114.3Y-156.845
X114.3Y-167.005
X71.755Y-171.45
X90.17Y-171.45
T3
X89.75Y-95.25
X100.75Y-95.25
X89.75Y-114.3
X100.75Y-114.3
X108.8Y-123.825
X119.8Y-123.825
X51.65Y-95.25
X62.65Y-95.25
X51.65Y-133.35
X62.65Y-133.35
X51.65Y-76.2
X62.65Y-76.2
X70.7Y-133.35
X81.7Y-133.35
X70.7Y-76.2
X81.7Y-76.2
X51.65Y-114.3
X62.65Y-114.3
X70.7Y-152.4
X81.7Y-152.4
X70.7Y-95.25
X81.7Y-95.25
X108.8Y-95.25
X119.8Y-95.25
X89.75Y-133.35
X100.75Y-133.35
X89.75Y-76.2
X100.75Y-76.2
X70.7Y-114.3
X81.7Y-114.3
X51.65Y-152.4
X62.65Y-152.4
X108.8Y-76.2
X119.8Y-76.2
X89.75Y-152.4
X100.75Y-152.4
T4
X52.15Y-137.05
X53.34Y-130.81
X54.61Y-128.27
X57.15Y-139.25
X59.69Y-128.27
X60.96Y-130.81
X62.15Y-137.05
X52.15Y-79.9
X53.34Y-73.66
X54.61Y-71.12
X57.15Y-82.1
X59.69Y-71.12
X60.96Y-73.66
X62.15Y-79.9
X71.2Y-137.05
X72.39Y-130.81
X73.66Y-128.27
X76.2Y-139.25
X78.74Y-128.27
X80.01Y-130.81
X81.2Y-137.05
X71.2Y-79.9
X72.39Y-73.66
X73.66Y-71.12
X76.2Y-82.1
X78.74Y-71.12
X80.01Y-73.66
X81.2Y-79.9
X52.15Y-118.0
X53.34Y-111.76
X54.61Y-109.22
X57.15Y-120.2
X59.69Y-109.22
X60.96Y-111.76
X62.15Y-118.0
X71.2Y-156.1
X72.39Y-149.86
X73.66Y-147.32
X76.2Y-158.3
X78.74Y-147.32
X80.01Y-149.86
X81.2Y-156.1
X71.2Y-98.95
X72.39Y-92.71
X73.66Y-90.17
X76.2Y-101.15
X78.74Y-90.17
X80.01Y-92.71
X81.2Y-98.95
X109.3Y-98.95
X110.49Y-92.71
X111.76Y-90.17
X114.3Y-101.15
X116.84Y-90.17
X118.11Y-92.71
X119.3Y-98.95
X90.25Y-137.05
X91.44Y-130.81
X92.71Y-128.27
X95.25Y-139.25
X97.79Y-128.27
X99.06Y-130.81
X100.25Y-137.05
X62.865Y-168.91
X69.215Y-166.37
X90.25Y-79.9
X91.44Y-73.66
X92.71Y-71.12
X95.25Y-82.1
X97.79Y-71.12
X99.06Y-73.66
X100.25Y-79.9
X71.2Y-118.0
X72.39Y-111.76
X73.66Y-109.22
X76.2Y-120.2
X78.74Y-109.22
X80.01Y-111.76
X81.2Y-118.0
X52.15Y-156.1
X53.34Y-149.86
X54.61Y-147.32
X57.15Y-158.3
X59.69Y-147.32
X60.96Y-149.86
X62.15Y-156.1
X109.3Y-79.9
X110.49Y-73.66
X111.76Y-71.12
X114.3Y-82.1
X116.84Y-71.12
X118.11Y-73.66
X119.3Y-79.9
X90.25Y-156.1
X91.44Y-149.86
X92.71Y-147.32
X95.25Y-158.3
X97.79Y-147.32
X99.06Y-149.86
X100.25Y-156.1
X91.44Y-168.91
X97.79Y-166.37
X90.25Y-98.95
X91.44Y-92.71
X92.71Y-90.17
X95.25Y-101.15
X97.79Y-90.17
X99.06Y-92.71
X100.25Y-98.95
X90.25Y-118.0
X91.44Y-111.76
X92.71Y-109.22
X95.25Y-120.2
X97.79Y-109.22
X99.06Y-111.76
X100.25Y-118.0
X109.3Y-127.525
X110.49Y-121.285
X111.76Y-118.745
X114.3Y-129.725
X116.84Y-118.745
X118.11Y-121.285
X119.3Y-127.525
X52.15Y-98.95
X53.34Y-92.71
X54.61Y-90.17
X57.15Y-101.15
X59.69Y-90.17
X60.96Y-92.71
X62.15Y-98.95
X109.22Y-159.385
X111.76Y-165.735
T5
X121.285Y-149.987
X121.285Y-173.863
X54.737Y-178.435
X78.613Y-178.435
T6
X95.25Y-171.45
X106.045Y-149.987
X106.045Y-173.863
X114.3Y-161.925
X54.737Y-163.195
X66.675Y-171.45
X78.613Y-163.195
T7
X57.15Y-152.4
X114.3Y-76.2
X95.25Y-152.4
X95.25Y-95.25
X95.25Y-114.3
X114.3Y-123.825
X57.15Y-95.25
X57.15Y-133.35
X57.15Y-76.2
X76.2Y-133.35
X76.2Y-76.2
X57.15Y-114.3
X76.2Y-152.4
X76.2Y-95.25
X114.3Y-95.25
X95.25Y-133.35
X95.25Y-76.2
X76.2Y-114.3
T8
X122.0Y-42.45
X50.0Y-42.45
X50.0Y-183.45
X122.0Y-183.45
T0
M30
