G04 #@! TF.GenerationSoftware,KiCad,Pcbnew,(5.1.2-1)-1*
G04 #@! TF.CreationDate,2019-06-16T18:53:01+09:00*
G04 #@! TF.ProjectId,tenkey,74656e6b-6579-42e6-9b69-6361645f7063,rev?*
G04 #@! TF.SameCoordinates,Original*
G04 #@! TF.FileFunction,Legend,Bot*
G04 #@! TF.FilePolarity,Positive*
%FSLAX46Y46*%
G04 Gerber Fmt 4.6, Leading zero omitted, Abs format (unit mm)*
G04 Created by KiCad (PCBNEW (5.1.2-1)-1) date 2019-06-16 18:53:01*
%MOMM*%
%LPD*%
G04 APERTURE LIST*
%ADD10C,0.150000*%
G04 APERTURE END LIST*
D10*
X69238095Y-47410714D02*
X68857142Y-47410714D01*
X69095238Y-47077380D02*
X69095238Y-47934523D01*
X69047619Y-48029761D01*
X68952380Y-48077380D01*
X68857142Y-48077380D01*
X68142857Y-48029761D02*
X68238095Y-48077380D01*
X68428571Y-48077380D01*
X68523809Y-48029761D01*
X68571428Y-47934523D01*
X68571428Y-47553571D01*
X68523809Y-47458333D01*
X68428571Y-47410714D01*
X68238095Y-47410714D01*
X68142857Y-47458333D01*
X68095238Y-47553571D01*
X68095238Y-47648809D01*
X68571428Y-47744047D01*
X67666666Y-47410714D02*
X67666666Y-48077380D01*
X67666666Y-47505952D02*
X67619047Y-47458333D01*
X67523809Y-47410714D01*
X67380952Y-47410714D01*
X67285714Y-47458333D01*
X67238095Y-47553571D01*
X67238095Y-48077380D01*
X66761904Y-48077380D02*
X66761904Y-47077380D01*
X66666666Y-47696428D02*
X66380952Y-48077380D01*
X66380952Y-47410714D02*
X66761904Y-47791666D01*
X65571428Y-48029761D02*
X65666666Y-48077380D01*
X65857142Y-48077380D01*
X65952380Y-48029761D01*
X66000000Y-47934523D01*
X66000000Y-47553571D01*
X65952380Y-47458333D01*
X65857142Y-47410714D01*
X65666666Y-47410714D01*
X65571428Y-47458333D01*
X65523809Y-47553571D01*
X65523809Y-47648809D01*
X66000000Y-47744047D01*
X65190476Y-47410714D02*
X64952380Y-48077380D01*
X64714285Y-47410714D02*
X64952380Y-48077380D01*
X65047619Y-48315476D01*
X65095238Y-48363095D01*
X65190476Y-48410714D01*
X63666666Y-47410714D02*
X63428571Y-48077380D01*
X63190476Y-47410714D01*
X62285714Y-48077380D02*
X62857142Y-48077380D01*
X62571428Y-48077380D02*
X62571428Y-47077380D01*
X62666666Y-47220238D01*
X62761904Y-47315476D01*
X62857142Y-47363095D01*
X61857142Y-47982142D02*
X61809523Y-48029761D01*
X61857142Y-48077380D01*
X61904761Y-48029761D01*
X61857142Y-47982142D01*
X61857142Y-48077380D01*
X61190476Y-47077380D02*
X61095238Y-47077380D01*
X60999999Y-47125000D01*
X60952380Y-47172619D01*
X60904761Y-47267857D01*
X60857142Y-47458333D01*
X60857142Y-47696428D01*
X60904761Y-47886904D01*
X60952380Y-47982142D01*
X60999999Y-48029761D01*
X61095238Y-48077380D01*
X61190476Y-48077380D01*
X61285714Y-48029761D01*
X61333333Y-47982142D01*
X61380952Y-47886904D01*
X61428571Y-47696428D01*
X61428571Y-47458333D01*
X61380952Y-47267857D01*
X61333333Y-47172619D01*
X61285714Y-47125000D01*
X61190476Y-47077380D01*
X70928571Y-49727380D02*
X70928571Y-48727380D01*
X70928571Y-49679761D02*
X71023809Y-49727380D01*
X71214285Y-49727380D01*
X71309523Y-49679761D01*
X71357142Y-49632142D01*
X71404761Y-49536904D01*
X71404761Y-49251190D01*
X71357142Y-49155952D01*
X71309523Y-49108333D01*
X71214285Y-49060714D01*
X71023809Y-49060714D01*
X70928571Y-49108333D01*
X70071428Y-49679761D02*
X70166666Y-49727380D01*
X70357142Y-49727380D01*
X70452380Y-49679761D01*
X70500000Y-49584523D01*
X70500000Y-49203571D01*
X70452380Y-49108333D01*
X70357142Y-49060714D01*
X70166666Y-49060714D01*
X70071428Y-49108333D01*
X70023809Y-49203571D01*
X70023809Y-49298809D01*
X70500000Y-49394047D01*
X69642857Y-49679761D02*
X69547619Y-49727380D01*
X69357142Y-49727380D01*
X69261904Y-49679761D01*
X69214285Y-49584523D01*
X69214285Y-49536904D01*
X69261904Y-49441666D01*
X69357142Y-49394047D01*
X69500000Y-49394047D01*
X69595238Y-49346428D01*
X69642857Y-49251190D01*
X69642857Y-49203571D01*
X69595238Y-49108333D01*
X69500000Y-49060714D01*
X69357142Y-49060714D01*
X69261904Y-49108333D01*
X68785714Y-49727380D02*
X68785714Y-49060714D01*
X68785714Y-48727380D02*
X68833333Y-48775000D01*
X68785714Y-48822619D01*
X68738095Y-48775000D01*
X68785714Y-48727380D01*
X68785714Y-48822619D01*
X67880952Y-49060714D02*
X67880952Y-49870238D01*
X67928571Y-49965476D01*
X67976190Y-50013095D01*
X68071428Y-50060714D01*
X68214285Y-50060714D01*
X68309523Y-50013095D01*
X67880952Y-49679761D02*
X67976190Y-49727380D01*
X68166666Y-49727380D01*
X68261904Y-49679761D01*
X68309523Y-49632142D01*
X68357142Y-49536904D01*
X68357142Y-49251190D01*
X68309523Y-49155952D01*
X68261904Y-49108333D01*
X68166666Y-49060714D01*
X67976190Y-49060714D01*
X67880952Y-49108333D01*
X67404761Y-49060714D02*
X67404761Y-49727380D01*
X67404761Y-49155952D02*
X67357142Y-49108333D01*
X67261904Y-49060714D01*
X67119047Y-49060714D01*
X67023809Y-49108333D01*
X66976190Y-49203571D01*
X66976190Y-49727380D01*
X66119047Y-49679761D02*
X66214285Y-49727380D01*
X66404761Y-49727380D01*
X66500000Y-49679761D01*
X66547619Y-49584523D01*
X66547619Y-49203571D01*
X66500000Y-49108333D01*
X66404761Y-49060714D01*
X66214285Y-49060714D01*
X66119047Y-49108333D01*
X66071428Y-49203571D01*
X66071428Y-49298809D01*
X66547619Y-49394047D01*
X65214285Y-49727380D02*
X65214285Y-48727380D01*
X65214285Y-49679761D02*
X65309523Y-49727380D01*
X65500000Y-49727380D01*
X65595238Y-49679761D01*
X65642857Y-49632142D01*
X65690476Y-49536904D01*
X65690476Y-49251190D01*
X65642857Y-49155952D01*
X65595238Y-49108333D01*
X65500000Y-49060714D01*
X65309523Y-49060714D01*
X65214285Y-49108333D01*
X63976190Y-49727380D02*
X63976190Y-48727380D01*
X63976190Y-49108333D02*
X63880952Y-49060714D01*
X63690476Y-49060714D01*
X63595238Y-49108333D01*
X63547619Y-49155952D01*
X63500000Y-49251190D01*
X63500000Y-49536904D01*
X63547619Y-49632142D01*
X63595238Y-49679761D01*
X63690476Y-49727380D01*
X63880952Y-49727380D01*
X63976190Y-49679761D01*
X63166666Y-49060714D02*
X62928571Y-49727380D01*
X62690476Y-49060714D02*
X62928571Y-49727380D01*
X63023809Y-49965476D01*
X63071428Y-50013095D01*
X63166666Y-50060714D01*
X61595238Y-49679761D02*
X61500000Y-49727380D01*
X61309523Y-49727380D01*
X61214285Y-49679761D01*
X61166666Y-49584523D01*
X61166666Y-49536904D01*
X61214285Y-49441666D01*
X61309523Y-49394047D01*
X61452380Y-49394047D01*
X61547619Y-49346428D01*
X61595238Y-49251190D01*
X61595238Y-49203571D01*
X61547619Y-49108333D01*
X61452380Y-49060714D01*
X61309523Y-49060714D01*
X61214285Y-49108333D01*
X60833333Y-49060714D02*
X60595238Y-49727380D01*
X60357142Y-49060714D02*
X60595238Y-49727380D01*
X60690476Y-49965476D01*
X60738095Y-50013095D01*
X60833333Y-50060714D01*
X59833333Y-49727380D02*
X59928571Y-49679761D01*
X59976190Y-49632142D01*
X60023809Y-49536904D01*
X60023809Y-49251190D01*
X59976190Y-49155952D01*
X59928571Y-49108333D01*
X59833333Y-49060714D01*
X59690476Y-49060714D01*
X59595238Y-49108333D01*
X59547619Y-49155952D01*
X59500000Y-49251190D01*
X59500000Y-49536904D01*
X59547619Y-49632142D01*
X59595238Y-49679761D01*
X59690476Y-49727380D01*
X59833333Y-49727380D01*
X59071428Y-49060714D02*
X59071428Y-49727380D01*
X59071428Y-49155952D02*
X59023809Y-49108333D01*
X58928571Y-49060714D01*
X58785714Y-49060714D01*
X58690476Y-49108333D01*
X58642857Y-49203571D01*
X58642857Y-49727380D01*
X87250000Y-53700000D02*
X87250000Y-53950000D01*
X87250000Y-53950000D02*
X81250000Y-53950000D01*
X81250000Y-53950000D02*
X81250000Y-53700000D01*
X81250000Y-50700000D02*
X81250000Y-50450000D01*
X81250000Y-50450000D02*
X87250000Y-50450000D01*
X87250000Y-50450000D02*
X87250000Y-50700000D01*
X62750000Y-68000000D02*
X61850000Y-68500000D01*
X61850000Y-68500000D02*
X61850000Y-67500000D01*
X61850000Y-67500000D02*
X62750000Y-68000000D01*
X62850000Y-68500000D02*
X62850000Y-67500000D01*
X81950000Y-68500000D02*
X81950000Y-67500000D01*
X80950000Y-67500000D02*
X81850000Y-68000000D01*
X80950000Y-68500000D02*
X80950000Y-67500000D01*
X81850000Y-68000000D02*
X80950000Y-68500000D01*
X100950000Y-68000000D02*
X100050000Y-68500000D01*
X100050000Y-68500000D02*
X100050000Y-67500000D01*
X100050000Y-67500000D02*
X100950000Y-68000000D01*
X101050000Y-68500000D02*
X101050000Y-67500000D01*
X119850000Y-68000000D02*
X118950000Y-68500000D01*
X118950000Y-68500000D02*
X118950000Y-67500000D01*
X118950000Y-67500000D02*
X119850000Y-68000000D01*
X119950000Y-68500000D02*
X119950000Y-67500000D01*
X62750000Y-86960000D02*
X61850000Y-87460000D01*
X61850000Y-87460000D02*
X61850000Y-86460000D01*
X61850000Y-86460000D02*
X62750000Y-86960000D01*
X62850000Y-87460000D02*
X62850000Y-86460000D01*
X81950000Y-87460000D02*
X81950000Y-86460000D01*
X80950000Y-86460000D02*
X81850000Y-86960000D01*
X80950000Y-87460000D02*
X80950000Y-86460000D01*
X81850000Y-86960000D02*
X80950000Y-87460000D01*
X101050000Y-87460000D02*
X101050000Y-86460000D01*
X100050000Y-86460000D02*
X100950000Y-86960000D01*
X100050000Y-87460000D02*
X100050000Y-86460000D01*
X100950000Y-86960000D02*
X100050000Y-87460000D01*
X119950000Y-87460000D02*
X119950000Y-86460000D01*
X118950000Y-86460000D02*
X119850000Y-86960000D01*
X118950000Y-87460000D02*
X118950000Y-86460000D01*
X119850000Y-86960000D02*
X118950000Y-87460000D01*
X62750000Y-106080000D02*
X61850000Y-106580000D01*
X61850000Y-106580000D02*
X61850000Y-105580000D01*
X61850000Y-105580000D02*
X62750000Y-106080000D01*
X62850000Y-106580000D02*
X62850000Y-105580000D01*
X81950000Y-106580000D02*
X81950000Y-105580000D01*
X80950000Y-105580000D02*
X81850000Y-106080000D01*
X80950000Y-106580000D02*
X80950000Y-105580000D01*
X81850000Y-106080000D02*
X80950000Y-106580000D01*
X100950000Y-106080000D02*
X100050000Y-106580000D01*
X100050000Y-106580000D02*
X100050000Y-105580000D01*
X100050000Y-105580000D02*
X100950000Y-106080000D01*
X101050000Y-106580000D02*
X101050000Y-105580000D01*
X119950000Y-116100000D02*
X119950000Y-115100000D01*
X118950000Y-115100000D02*
X119850000Y-115600000D01*
X118950000Y-116100000D02*
X118950000Y-115100000D01*
X119850000Y-115600000D02*
X118950000Y-116100000D01*
X62750000Y-125130000D02*
X61850000Y-125630000D01*
X61850000Y-125630000D02*
X61850000Y-124630000D01*
X61850000Y-124630000D02*
X62750000Y-125130000D01*
X62850000Y-125630000D02*
X62850000Y-124630000D01*
X81950000Y-125376000D02*
X81950000Y-124376000D01*
X80950000Y-124376000D02*
X81850000Y-124876000D01*
X80950000Y-125376000D02*
X80950000Y-124376000D01*
X81850000Y-124876000D02*
X80950000Y-125376000D01*
X100950000Y-124876000D02*
X100050000Y-125376000D01*
X100050000Y-125376000D02*
X100050000Y-124376000D01*
X100050000Y-124376000D02*
X100950000Y-124876000D01*
X101050000Y-125376000D02*
X101050000Y-124376000D01*
X62850000Y-144680000D02*
X62850000Y-143680000D01*
X61850000Y-143680000D02*
X62750000Y-144180000D01*
X61850000Y-144680000D02*
X61850000Y-143680000D01*
X62750000Y-144180000D02*
X61850000Y-144680000D01*
X81850000Y-144180000D02*
X80950000Y-144680000D01*
X80950000Y-144680000D02*
X80950000Y-143680000D01*
X80950000Y-143680000D02*
X81850000Y-144180000D01*
X81950000Y-144680000D02*
X81950000Y-143680000D01*
X101050000Y-144680000D02*
X101050000Y-143680000D01*
X100050000Y-143680000D02*
X100950000Y-144180000D01*
X100050000Y-144680000D02*
X100050000Y-143680000D01*
X100950000Y-144180000D02*
X100050000Y-144680000D01*
X114650000Y-143450000D02*
X113750000Y-143950000D01*
X113750000Y-143950000D02*
X113750000Y-142950000D01*
X113750000Y-142950000D02*
X114650000Y-143450000D01*
X114750000Y-143950000D02*
X114750000Y-142950000D01*
X84000000Y-171200000D02*
X83000000Y-171200000D01*
X83000000Y-172200000D02*
X83500000Y-171300000D01*
X84000000Y-172200000D02*
X83000000Y-172200000D01*
X83500000Y-171300000D02*
X84000000Y-172200000D01*
X100950000Y-163300000D02*
X100050000Y-163800000D01*
X100050000Y-163800000D02*
X100050000Y-162800000D01*
X100050000Y-162800000D02*
X100950000Y-163300000D01*
X101050000Y-163800000D02*
X101050000Y-162800000D01*
X51050000Y-75304000D02*
X54660000Y-75304000D01*
X51050000Y-71350000D02*
X51050000Y-75295000D01*
X61950000Y-69396000D02*
X53325000Y-69396000D01*
X61950000Y-73304000D02*
X61950000Y-69396000D01*
X61950000Y-73350000D02*
X56900000Y-73396000D01*
X51061000Y-71280000D02*
G75*
G02X53325000Y-69396000I2074000J-190000D01*
G01*
X54665000Y-75280000D02*
G75*
G02X56925000Y-73400000I2070000J-190000D01*
G01*
X59425000Y-84425000D02*
X54875000Y-84425000D01*
X59425000Y-79775000D02*
X56875000Y-79775000D01*
X54575000Y-77575000D02*
X49875000Y-77575000D01*
X53650000Y-82225000D02*
X49875000Y-82225000D01*
X59450000Y-79800000D02*
X59450000Y-84400000D01*
X49875000Y-77600000D02*
X49850000Y-82200000D01*
X54580000Y-77600000D02*
G75*
G03X56950000Y-79770000I2270000J100000D01*
G01*
X54870000Y-83650000D02*
G75*
G03X53650000Y-82230000I-1320000J100000D01*
G01*
X54870000Y-83700000D02*
X54870000Y-84400000D01*
X70100000Y-75304000D02*
X73710000Y-75304000D01*
X70100000Y-71350000D02*
X70100000Y-75295000D01*
X81000000Y-69396000D02*
X72375000Y-69396000D01*
X81000000Y-73304000D02*
X81000000Y-69396000D01*
X81000000Y-73350000D02*
X75950000Y-73396000D01*
X70111000Y-71280000D02*
G75*
G02X72375000Y-69396000I2074000J-190000D01*
G01*
X73715000Y-75280000D02*
G75*
G02X75975000Y-73400000I2070000J-190000D01*
G01*
X78475000Y-84425000D02*
X73925000Y-84425000D01*
X78475000Y-79775000D02*
X75925000Y-79775000D01*
X73625000Y-77575000D02*
X68925000Y-77575000D01*
X72700000Y-82225000D02*
X68925000Y-82225000D01*
X78500000Y-79800000D02*
X78500000Y-84400000D01*
X68925000Y-77600000D02*
X68900000Y-82200000D01*
X73630000Y-77600000D02*
G75*
G03X76000000Y-79770000I2270000J100000D01*
G01*
X73920000Y-83650000D02*
G75*
G03X72700000Y-82230000I-1320000J100000D01*
G01*
X73920000Y-83700000D02*
X73920000Y-84400000D01*
X89150000Y-75304000D02*
X92760000Y-75304000D01*
X89150000Y-71350000D02*
X89150000Y-75295000D01*
X100050000Y-69396000D02*
X91425000Y-69396000D01*
X100050000Y-73304000D02*
X100050000Y-69396000D01*
X100050000Y-73350000D02*
X95000000Y-73396000D01*
X89161000Y-71280000D02*
G75*
G02X91425000Y-69396000I2074000J-190000D01*
G01*
X92765000Y-75280000D02*
G75*
G02X95025000Y-73400000I2070000J-190000D01*
G01*
X97525000Y-84425000D02*
X92975000Y-84425000D01*
X97525000Y-79775000D02*
X94975000Y-79775000D01*
X92675000Y-77575000D02*
X87975000Y-77575000D01*
X91750000Y-82225000D02*
X87975000Y-82225000D01*
X97550000Y-79800000D02*
X97550000Y-84400000D01*
X87975000Y-77600000D02*
X87950000Y-82200000D01*
X92680000Y-77600000D02*
G75*
G03X95050000Y-79770000I2270000J100000D01*
G01*
X92970000Y-83650000D02*
G75*
G03X91750000Y-82230000I-1320000J100000D01*
G01*
X92970000Y-83700000D02*
X92970000Y-84400000D01*
X108200000Y-75304000D02*
X111810000Y-75304000D01*
X108200000Y-71350000D02*
X108200000Y-75295000D01*
X119100000Y-69396000D02*
X110475000Y-69396000D01*
X119100000Y-73304000D02*
X119100000Y-69396000D01*
X119100000Y-73350000D02*
X114050000Y-73396000D01*
X108211000Y-71280000D02*
G75*
G02X110475000Y-69396000I2074000J-190000D01*
G01*
X111815000Y-75280000D02*
G75*
G02X114075000Y-73400000I2070000J-190000D01*
G01*
X116575000Y-84425000D02*
X112025000Y-84425000D01*
X116575000Y-79775000D02*
X114025000Y-79775000D01*
X111725000Y-77575000D02*
X107025000Y-77575000D01*
X110800000Y-82225000D02*
X107025000Y-82225000D01*
X116600000Y-79800000D02*
X116600000Y-84400000D01*
X107025000Y-77600000D02*
X107000000Y-82200000D01*
X111730000Y-77600000D02*
G75*
G03X114100000Y-79770000I2270000J100000D01*
G01*
X112020000Y-83650000D02*
G75*
G03X110800000Y-82230000I-1320000J100000D01*
G01*
X112020000Y-83700000D02*
X112020000Y-84400000D01*
X51050000Y-94354000D02*
X54660000Y-94354000D01*
X51050000Y-90400000D02*
X51050000Y-94345000D01*
X61950000Y-88446000D02*
X53325000Y-88446000D01*
X61950000Y-92354000D02*
X61950000Y-88446000D01*
X61950000Y-92400000D02*
X56900000Y-92446000D01*
X51061000Y-90330000D02*
G75*
G02X53325000Y-88446000I2074000J-190000D01*
G01*
X54665000Y-94330000D02*
G75*
G02X56925000Y-92450000I2070000J-190000D01*
G01*
X59425000Y-103475000D02*
X54875000Y-103475000D01*
X59425000Y-98825000D02*
X56875000Y-98825000D01*
X54575000Y-96625000D02*
X49875000Y-96625000D01*
X53650000Y-101275000D02*
X49875000Y-101275000D01*
X59450000Y-98850000D02*
X59450000Y-103450000D01*
X49875000Y-96650000D02*
X49850000Y-101250000D01*
X54580000Y-96650000D02*
G75*
G03X56950000Y-98820000I2270000J100000D01*
G01*
X54870000Y-102700000D02*
G75*
G03X53650000Y-101280000I-1320000J100000D01*
G01*
X54870000Y-102750000D02*
X54870000Y-103450000D01*
X70100000Y-94354000D02*
X73710000Y-94354000D01*
X70100000Y-90400000D02*
X70100000Y-94345000D01*
X81000000Y-88446000D02*
X72375000Y-88446000D01*
X81000000Y-92354000D02*
X81000000Y-88446000D01*
X81000000Y-92400000D02*
X75950000Y-92446000D01*
X70111000Y-90330000D02*
G75*
G02X72375000Y-88446000I2074000J-190000D01*
G01*
X73715000Y-94330000D02*
G75*
G02X75975000Y-92450000I2070000J-190000D01*
G01*
X78475000Y-103475000D02*
X73925000Y-103475000D01*
X78475000Y-98825000D02*
X75925000Y-98825000D01*
X73625000Y-96625000D02*
X68925000Y-96625000D01*
X72700000Y-101275000D02*
X68925000Y-101275000D01*
X78500000Y-98850000D02*
X78500000Y-103450000D01*
X68925000Y-96650000D02*
X68900000Y-101250000D01*
X73630000Y-96650000D02*
G75*
G03X76000000Y-98820000I2270000J100000D01*
G01*
X73920000Y-102700000D02*
G75*
G03X72700000Y-101280000I-1320000J100000D01*
G01*
X73920000Y-102750000D02*
X73920000Y-103450000D01*
X92970000Y-102750000D02*
X92970000Y-103450000D01*
X92970000Y-102700000D02*
G75*
G03X91750000Y-101280000I-1320000J100000D01*
G01*
X92680000Y-96650000D02*
G75*
G03X95050000Y-98820000I2270000J100000D01*
G01*
X87975000Y-96650000D02*
X87950000Y-101250000D01*
X97550000Y-98850000D02*
X97550000Y-103450000D01*
X91750000Y-101275000D02*
X87975000Y-101275000D01*
X92675000Y-96625000D02*
X87975000Y-96625000D01*
X97525000Y-98825000D02*
X94975000Y-98825000D01*
X97525000Y-103475000D02*
X92975000Y-103475000D01*
X92765000Y-94330000D02*
G75*
G02X95025000Y-92450000I2070000J-190000D01*
G01*
X89161000Y-90330000D02*
G75*
G02X91425000Y-88446000I2074000J-190000D01*
G01*
X100050000Y-92400000D02*
X95000000Y-92446000D01*
X100050000Y-92354000D02*
X100050000Y-88446000D01*
X100050000Y-88446000D02*
X91425000Y-88446000D01*
X89150000Y-90400000D02*
X89150000Y-94345000D01*
X89150000Y-94354000D02*
X92760000Y-94354000D01*
X108200000Y-94354000D02*
X111810000Y-94354000D01*
X108200000Y-90400000D02*
X108200000Y-94345000D01*
X119100000Y-88446000D02*
X110475000Y-88446000D01*
X119100000Y-92354000D02*
X119100000Y-88446000D01*
X119100000Y-92400000D02*
X114050000Y-92446000D01*
X108211000Y-90330000D02*
G75*
G02X110475000Y-88446000I2074000J-190000D01*
G01*
X111815000Y-94330000D02*
G75*
G02X114075000Y-92450000I2070000J-190000D01*
G01*
X116575000Y-103475000D02*
X112025000Y-103475000D01*
X116575000Y-98825000D02*
X114025000Y-98825000D01*
X111725000Y-96625000D02*
X107025000Y-96625000D01*
X110800000Y-101275000D02*
X107025000Y-101275000D01*
X116600000Y-98850000D02*
X116600000Y-103450000D01*
X107025000Y-96650000D02*
X107000000Y-101250000D01*
X111730000Y-96650000D02*
G75*
G03X114100000Y-98820000I2270000J100000D01*
G01*
X112020000Y-102700000D02*
G75*
G03X110800000Y-101280000I-1320000J100000D01*
G01*
X112020000Y-102750000D02*
X112020000Y-103450000D01*
X54870000Y-121800000D02*
X54870000Y-122500000D01*
X54870000Y-121750000D02*
G75*
G03X53650000Y-120330000I-1320000J100000D01*
G01*
X54580000Y-115700000D02*
G75*
G03X56950000Y-117870000I2270000J100000D01*
G01*
X49875000Y-115700000D02*
X49850000Y-120300000D01*
X59450000Y-117900000D02*
X59450000Y-122500000D01*
X53650000Y-120325000D02*
X49875000Y-120325000D01*
X54575000Y-115675000D02*
X49875000Y-115675000D01*
X59425000Y-117875000D02*
X56875000Y-117875000D01*
X59425000Y-122525000D02*
X54875000Y-122525000D01*
X54665000Y-113380000D02*
G75*
G02X56925000Y-111500000I2070000J-190000D01*
G01*
X51061000Y-109380000D02*
G75*
G02X53325000Y-107496000I2074000J-190000D01*
G01*
X61950000Y-111450000D02*
X56900000Y-111496000D01*
X61950000Y-111404000D02*
X61950000Y-107496000D01*
X61950000Y-107496000D02*
X53325000Y-107496000D01*
X51050000Y-109450000D02*
X51050000Y-113395000D01*
X51050000Y-113404000D02*
X54660000Y-113404000D01*
X70100000Y-113404000D02*
X73710000Y-113404000D01*
X70100000Y-109450000D02*
X70100000Y-113395000D01*
X81000000Y-107496000D02*
X72375000Y-107496000D01*
X81000000Y-111404000D02*
X81000000Y-107496000D01*
X81000000Y-111450000D02*
X75950000Y-111496000D01*
X70111000Y-109380000D02*
G75*
G02X72375000Y-107496000I2074000J-190000D01*
G01*
X73715000Y-113380000D02*
G75*
G02X75975000Y-111500000I2070000J-190000D01*
G01*
X78475000Y-122525000D02*
X73925000Y-122525000D01*
X78475000Y-117875000D02*
X75925000Y-117875000D01*
X73625000Y-115675000D02*
X68925000Y-115675000D01*
X72700000Y-120325000D02*
X68925000Y-120325000D01*
X78500000Y-117900000D02*
X78500000Y-122500000D01*
X68925000Y-115700000D02*
X68900000Y-120300000D01*
X73630000Y-115700000D02*
G75*
G03X76000000Y-117870000I2270000J100000D01*
G01*
X73920000Y-121750000D02*
G75*
G03X72700000Y-120330000I-1320000J100000D01*
G01*
X73920000Y-121800000D02*
X73920000Y-122500000D01*
X89150000Y-113404000D02*
X92760000Y-113404000D01*
X89150000Y-109450000D02*
X89150000Y-113395000D01*
X100050000Y-107496000D02*
X91425000Y-107496000D01*
X100050000Y-111404000D02*
X100050000Y-107496000D01*
X100050000Y-111450000D02*
X95000000Y-111496000D01*
X89161000Y-109380000D02*
G75*
G02X91425000Y-107496000I2074000J-190000D01*
G01*
X92765000Y-113380000D02*
G75*
G02X95025000Y-111500000I2070000J-190000D01*
G01*
X97525000Y-122525000D02*
X92975000Y-122525000D01*
X97525000Y-117875000D02*
X94975000Y-117875000D01*
X92675000Y-115675000D02*
X87975000Y-115675000D01*
X91750000Y-120325000D02*
X87975000Y-120325000D01*
X97550000Y-117900000D02*
X97550000Y-122500000D01*
X87975000Y-115700000D02*
X87950000Y-120300000D01*
X92680000Y-115700000D02*
G75*
G03X95050000Y-117870000I2270000J100000D01*
G01*
X92970000Y-121750000D02*
G75*
G03X91750000Y-120330000I-1320000J100000D01*
G01*
X92970000Y-121800000D02*
X92970000Y-122500000D01*
X112020000Y-131325000D02*
X112020000Y-132025000D01*
X112020000Y-131275000D02*
G75*
G03X110800000Y-129855000I-1320000J100000D01*
G01*
X111730000Y-125225000D02*
G75*
G03X114100000Y-127395000I2270000J100000D01*
G01*
X107025000Y-125225000D02*
X107000000Y-129825000D01*
X116600000Y-127425000D02*
X116600000Y-132025000D01*
X110800000Y-129850000D02*
X107025000Y-129850000D01*
X111725000Y-125200000D02*
X107025000Y-125200000D01*
X116575000Y-127400000D02*
X114025000Y-127400000D01*
X116575000Y-132050000D02*
X112025000Y-132050000D01*
X111815000Y-122905000D02*
G75*
G02X114075000Y-121025000I2070000J-190000D01*
G01*
X108211000Y-118905000D02*
G75*
G02X110475000Y-117021000I2074000J-190000D01*
G01*
X119100000Y-120975000D02*
X114050000Y-121021000D01*
X119100000Y-120929000D02*
X119100000Y-117021000D01*
X119100000Y-117021000D02*
X110475000Y-117021000D01*
X108200000Y-118975000D02*
X108200000Y-122920000D01*
X108200000Y-122929000D02*
X111810000Y-122929000D01*
X54870000Y-140850000D02*
X54870000Y-141550000D01*
X54870000Y-140800000D02*
G75*
G03X53650000Y-139380000I-1320000J100000D01*
G01*
X54580000Y-134750000D02*
G75*
G03X56950000Y-136920000I2270000J100000D01*
G01*
X49875000Y-134750000D02*
X49850000Y-139350000D01*
X59450000Y-136950000D02*
X59450000Y-141550000D01*
X53650000Y-139375000D02*
X49875000Y-139375000D01*
X54575000Y-134725000D02*
X49875000Y-134725000D01*
X59425000Y-136925000D02*
X56875000Y-136925000D01*
X59425000Y-141575000D02*
X54875000Y-141575000D01*
X54665000Y-132430000D02*
G75*
G02X56925000Y-130550000I2070000J-190000D01*
G01*
X51061000Y-128430000D02*
G75*
G02X53325000Y-126546000I2074000J-190000D01*
G01*
X61950000Y-130500000D02*
X56900000Y-130546000D01*
X61950000Y-130454000D02*
X61950000Y-126546000D01*
X61950000Y-126546000D02*
X53325000Y-126546000D01*
X51050000Y-128500000D02*
X51050000Y-132445000D01*
X51050000Y-132454000D02*
X54660000Y-132454000D01*
X70100000Y-132454000D02*
X73710000Y-132454000D01*
X70100000Y-128500000D02*
X70100000Y-132445000D01*
X81000000Y-126546000D02*
X72375000Y-126546000D01*
X81000000Y-130454000D02*
X81000000Y-126546000D01*
X81000000Y-130500000D02*
X75950000Y-130546000D01*
X70111000Y-128430000D02*
G75*
G02X72375000Y-126546000I2074000J-190000D01*
G01*
X73715000Y-132430000D02*
G75*
G02X75975000Y-130550000I2070000J-190000D01*
G01*
X78475000Y-141575000D02*
X73925000Y-141575000D01*
X78475000Y-136925000D02*
X75925000Y-136925000D01*
X73625000Y-134725000D02*
X68925000Y-134725000D01*
X72700000Y-139375000D02*
X68925000Y-139375000D01*
X78500000Y-136950000D02*
X78500000Y-141550000D01*
X68925000Y-134750000D02*
X68900000Y-139350000D01*
X73630000Y-134750000D02*
G75*
G03X76000000Y-136920000I2270000J100000D01*
G01*
X73920000Y-140800000D02*
G75*
G03X72700000Y-139380000I-1320000J100000D01*
G01*
X73920000Y-140850000D02*
X73920000Y-141550000D01*
X92970000Y-140850000D02*
X92970000Y-141550000D01*
X92970000Y-140800000D02*
G75*
G03X91750000Y-139380000I-1320000J100000D01*
G01*
X92680000Y-134750000D02*
G75*
G03X95050000Y-136920000I2270000J100000D01*
G01*
X87975000Y-134750000D02*
X87950000Y-139350000D01*
X97550000Y-136950000D02*
X97550000Y-141550000D01*
X91750000Y-139375000D02*
X87975000Y-139375000D01*
X92675000Y-134725000D02*
X87975000Y-134725000D01*
X97525000Y-136925000D02*
X94975000Y-136925000D01*
X97525000Y-141575000D02*
X92975000Y-141575000D01*
X92765000Y-132430000D02*
G75*
G02X95025000Y-130550000I2070000J-190000D01*
G01*
X89161000Y-128430000D02*
G75*
G02X91425000Y-126546000I2074000J-190000D01*
G01*
X100050000Y-130500000D02*
X95000000Y-130546000D01*
X100050000Y-130454000D02*
X100050000Y-126546000D01*
X100050000Y-126546000D02*
X91425000Y-126546000D01*
X89150000Y-128500000D02*
X89150000Y-132445000D01*
X89150000Y-132454000D02*
X92760000Y-132454000D01*
X54870000Y-159900000D02*
X54870000Y-160600000D01*
X54870000Y-159850000D02*
G75*
G03X53650000Y-158430000I-1320000J100000D01*
G01*
X54580000Y-153800000D02*
G75*
G03X56950000Y-155970000I2270000J100000D01*
G01*
X49875000Y-153800000D02*
X49850000Y-158400000D01*
X59450000Y-156000000D02*
X59450000Y-160600000D01*
X53650000Y-158425000D02*
X49875000Y-158425000D01*
X54575000Y-153775000D02*
X49875000Y-153775000D01*
X59425000Y-155975000D02*
X56875000Y-155975000D01*
X59425000Y-160625000D02*
X54875000Y-160625000D01*
X54665000Y-151480000D02*
G75*
G02X56925000Y-149600000I2070000J-190000D01*
G01*
X51061000Y-147480000D02*
G75*
G02X53325000Y-145596000I2074000J-190000D01*
G01*
X61950000Y-149550000D02*
X56900000Y-149596000D01*
X61950000Y-149504000D02*
X61950000Y-145596000D01*
X61950000Y-145596000D02*
X53325000Y-145596000D01*
X51050000Y-147550000D02*
X51050000Y-151495000D01*
X51050000Y-151504000D02*
X54660000Y-151504000D01*
X70100000Y-151504000D02*
X73710000Y-151504000D01*
X70100000Y-147550000D02*
X70100000Y-151495000D01*
X81000000Y-145596000D02*
X72375000Y-145596000D01*
X81000000Y-149504000D02*
X81000000Y-145596000D01*
X81000000Y-149550000D02*
X75950000Y-149596000D01*
X70111000Y-147480000D02*
G75*
G02X72375000Y-145596000I2074000J-190000D01*
G01*
X73715000Y-151480000D02*
G75*
G02X75975000Y-149600000I2070000J-190000D01*
G01*
X78475000Y-160625000D02*
X73925000Y-160625000D01*
X78475000Y-155975000D02*
X75925000Y-155975000D01*
X73625000Y-153775000D02*
X68925000Y-153775000D01*
X72700000Y-158425000D02*
X68925000Y-158425000D01*
X78500000Y-156000000D02*
X78500000Y-160600000D01*
X68925000Y-153800000D02*
X68900000Y-158400000D01*
X73630000Y-153800000D02*
G75*
G03X76000000Y-155970000I2270000J100000D01*
G01*
X73920000Y-159850000D02*
G75*
G03X72700000Y-158430000I-1320000J100000D01*
G01*
X73920000Y-159900000D02*
X73920000Y-160600000D01*
X92970000Y-159900000D02*
X92970000Y-160600000D01*
X92970000Y-159850000D02*
G75*
G03X91750000Y-158430000I-1320000J100000D01*
G01*
X92680000Y-153800000D02*
G75*
G03X95050000Y-155970000I2270000J100000D01*
G01*
X87975000Y-153800000D02*
X87950000Y-158400000D01*
X97550000Y-156000000D02*
X97550000Y-160600000D01*
X91750000Y-158425000D02*
X87975000Y-158425000D01*
X92675000Y-153775000D02*
X87975000Y-153775000D01*
X97525000Y-155975000D02*
X94975000Y-155975000D01*
X97525000Y-160625000D02*
X92975000Y-160625000D01*
X92765000Y-151480000D02*
G75*
G02X95025000Y-149600000I2070000J-190000D01*
G01*
X89161000Y-147480000D02*
G75*
G02X91425000Y-145596000I2074000J-190000D01*
G01*
X100050000Y-149550000D02*
X95000000Y-149596000D01*
X100050000Y-149504000D02*
X100050000Y-145596000D01*
X100050000Y-145596000D02*
X91425000Y-145596000D01*
X89150000Y-147550000D02*
X89150000Y-151495000D01*
X89150000Y-151504000D02*
X92760000Y-151504000D01*
X97059523Y-174902761D02*
X96916666Y-174950380D01*
X96678571Y-174950380D01*
X96583333Y-174902761D01*
X96535714Y-174855142D01*
X96488095Y-174759904D01*
X96488095Y-174664666D01*
X96535714Y-174569428D01*
X96583333Y-174521809D01*
X96678571Y-174474190D01*
X96869047Y-174426571D01*
X96964285Y-174378952D01*
X97011904Y-174331333D01*
X97059523Y-174236095D01*
X97059523Y-174140857D01*
X97011904Y-174045619D01*
X96964285Y-173998000D01*
X96869047Y-173950380D01*
X96630952Y-173950380D01*
X96488095Y-173998000D01*
X96154761Y-173950380D02*
X95916666Y-174950380D01*
X95726190Y-174236095D01*
X95535714Y-174950380D01*
X95297619Y-173950380D01*
X94964285Y-174045619D02*
X94916666Y-173998000D01*
X94821428Y-173950380D01*
X94583333Y-173950380D01*
X94488095Y-173998000D01*
X94440476Y-174045619D01*
X94392857Y-174140857D01*
X94392857Y-174236095D01*
X94440476Y-174378952D01*
X95011904Y-174950380D01*
X94392857Y-174950380D01*
X93440476Y-174950380D02*
X94011904Y-174950380D01*
X93726190Y-174950380D02*
X93726190Y-173950380D01*
X93821428Y-174093238D01*
X93916666Y-174188476D01*
X94011904Y-174236095D01*
X117752761Y-160115476D02*
X117800380Y-160258333D01*
X117800380Y-160496428D01*
X117752761Y-160591666D01*
X117705142Y-160639285D01*
X117609904Y-160686904D01*
X117514666Y-160686904D01*
X117419428Y-160639285D01*
X117371809Y-160591666D01*
X117324190Y-160496428D01*
X117276571Y-160305952D01*
X117228952Y-160210714D01*
X117181333Y-160163095D01*
X117086095Y-160115476D01*
X116990857Y-160115476D01*
X116895619Y-160163095D01*
X116848000Y-160210714D01*
X116800380Y-160305952D01*
X116800380Y-160544047D01*
X116848000Y-160686904D01*
X116800380Y-161020238D02*
X117800380Y-161258333D01*
X117086095Y-161448809D01*
X117800380Y-161639285D01*
X116800380Y-161877380D01*
X117800380Y-162782142D02*
X117800380Y-162210714D01*
X117800380Y-162496428D02*
X116800380Y-162496428D01*
X116943238Y-162401190D01*
X117038476Y-162305952D01*
X117086095Y-162210714D01*
X117800380Y-163258333D02*
X117800380Y-163448809D01*
X117752761Y-163544047D01*
X117705142Y-163591666D01*
X117562285Y-163686904D01*
X117371809Y-163734523D01*
X116990857Y-163734523D01*
X116895619Y-163686904D01*
X116848000Y-163639285D01*
X116800380Y-163544047D01*
X116800380Y-163353571D01*
X116848000Y-163258333D01*
X116895619Y-163210714D01*
X116990857Y-163163095D01*
X117228952Y-163163095D01*
X117324190Y-163210714D01*
X117371809Y-163258333D01*
X117419428Y-163353571D01*
X117419428Y-163544047D01*
X117371809Y-163639285D01*
X117324190Y-163686904D01*
X117228952Y-163734523D01*
X68484523Y-174902761D02*
X68341666Y-174950380D01*
X68103571Y-174950380D01*
X68008333Y-174902761D01*
X67960714Y-174855142D01*
X67913095Y-174759904D01*
X67913095Y-174664666D01*
X67960714Y-174569428D01*
X68008333Y-174521809D01*
X68103571Y-174474190D01*
X68294047Y-174426571D01*
X68389285Y-174378952D01*
X68436904Y-174331333D01*
X68484523Y-174236095D01*
X68484523Y-174140857D01*
X68436904Y-174045619D01*
X68389285Y-173998000D01*
X68294047Y-173950380D01*
X68055952Y-173950380D01*
X67913095Y-173998000D01*
X67579761Y-173950380D02*
X67341666Y-174950380D01*
X67151190Y-174236095D01*
X66960714Y-174950380D01*
X66722619Y-173950380D01*
X66389285Y-174045619D02*
X66341666Y-173998000D01*
X66246428Y-173950380D01*
X66008333Y-173950380D01*
X65913095Y-173998000D01*
X65865476Y-174045619D01*
X65817857Y-174140857D01*
X65817857Y-174236095D01*
X65865476Y-174378952D01*
X66436904Y-174950380D01*
X65817857Y-174950380D01*
X65198809Y-173950380D02*
X65103571Y-173950380D01*
X65008333Y-173998000D01*
X64960714Y-174045619D01*
X64913095Y-174140857D01*
X64865476Y-174331333D01*
X64865476Y-174569428D01*
X64913095Y-174759904D01*
X64960714Y-174855142D01*
X65008333Y-174902761D01*
X65103571Y-174950380D01*
X65198809Y-174950380D01*
X65294047Y-174902761D01*
X65341666Y-174855142D01*
X65389285Y-174759904D01*
X65436904Y-174569428D01*
X65436904Y-174331333D01*
X65389285Y-174140857D01*
X65341666Y-174045619D01*
X65294047Y-173998000D01*
X65198809Y-173950380D01*
X85829380Y-52652380D02*
X86162714Y-52176190D01*
X86400809Y-52652380D02*
X86400809Y-51652380D01*
X86019857Y-51652380D01*
X85924619Y-51700000D01*
X85877000Y-51747619D01*
X85829380Y-51842857D01*
X85829380Y-51985714D01*
X85877000Y-52080952D01*
X85924619Y-52128571D01*
X86019857Y-52176190D01*
X86400809Y-52176190D01*
X85400809Y-52128571D02*
X85067476Y-52128571D01*
X84924619Y-52652380D02*
X85400809Y-52652380D01*
X85400809Y-51652380D01*
X84924619Y-51652380D01*
X84543666Y-52604761D02*
X84400809Y-52652380D01*
X84162714Y-52652380D01*
X84067476Y-52604761D01*
X84019857Y-52557142D01*
X83972238Y-52461904D01*
X83972238Y-52366666D01*
X84019857Y-52271428D01*
X84067476Y-52223809D01*
X84162714Y-52176190D01*
X84353190Y-52128571D01*
X84448428Y-52080952D01*
X84496047Y-52033333D01*
X84543666Y-51938095D01*
X84543666Y-51842857D01*
X84496047Y-51747619D01*
X84448428Y-51700000D01*
X84353190Y-51652380D01*
X84115095Y-51652380D01*
X83972238Y-51700000D01*
X83543666Y-52128571D02*
X83210333Y-52128571D01*
X83067476Y-52652380D02*
X83543666Y-52652380D01*
X83543666Y-51652380D01*
X83067476Y-51652380D01*
X82781761Y-51652380D02*
X82210333Y-51652380D01*
X82496047Y-52652380D02*
X82496047Y-51652380D01*
X122846571Y-52231214D02*
X122894190Y-52374071D01*
X122941809Y-52421690D01*
X123037047Y-52469309D01*
X123179904Y-52469309D01*
X123275142Y-52421690D01*
X123322761Y-52374071D01*
X123370380Y-52278833D01*
X123370380Y-51897880D01*
X122370380Y-51897880D01*
X122370380Y-52231214D01*
X122418000Y-52326452D01*
X122465619Y-52374071D01*
X122560857Y-52421690D01*
X122656095Y-52421690D01*
X122751333Y-52374071D01*
X122798952Y-52326452D01*
X122846571Y-52231214D01*
X122846571Y-51897880D01*
X123370380Y-53326452D02*
X122846571Y-53326452D01*
X122751333Y-53278833D01*
X122703714Y-53183595D01*
X122703714Y-52993119D01*
X122751333Y-52897880D01*
X123322761Y-53326452D02*
X123370380Y-53231214D01*
X123370380Y-52993119D01*
X123322761Y-52897880D01*
X123227523Y-52850261D01*
X123132285Y-52850261D01*
X123037047Y-52897880D01*
X122989428Y-52993119D01*
X122989428Y-53231214D01*
X122941809Y-53326452D01*
X123322761Y-54231214D02*
X123370380Y-54135976D01*
X123370380Y-53945500D01*
X123322761Y-53850261D01*
X123275142Y-53802642D01*
X123179904Y-53755023D01*
X122894190Y-53755023D01*
X122798952Y-53802642D01*
X122751333Y-53850261D01*
X122703714Y-53945500D01*
X122703714Y-54135976D01*
X122751333Y-54231214D01*
X123370380Y-54659785D02*
X122370380Y-54659785D01*
X122989428Y-54755023D02*
X123370380Y-55040738D01*
X122703714Y-55040738D02*
X123084666Y-54659785D01*
M02*
