M48
; DRILL file {KiCad (5.1.2-1)-1} date 
; FORMAT={-:-/ absolute / metric / decimal}
; #@! TF.CreationDate,2019-06-16T18:54:52+09:00
; #@! TF.GenerationSoftware,Kicad,Pcbnew,(5.1.2-1)-1
; #@! TF.FileFunction,Plated,1,2,PTH
FMAT,2
METRIC
T1C0.400
T2C0.813
T3C1.300
%
G90
G05
T1
X49.57Y-129.0
X49.75Y-71.67
X49.75Y-90.72
X49.75Y-109.75
X49.75Y-147.75
X51.5Y-63.95
X51.5Y-67.75
X51.75Y-84.0
X51.75Y-141.0
X51.85Y-103.0
X51.95Y-160.25
X52.0Y-122.2
X58.25Y-156.0
X58.5Y-98.75
X58.5Y-137.0
X58.75Y-117.75
X59.5Y-79.75
X61.0Y-69.0
X61.25Y-145.0
X61.5Y-88.0
X61.5Y-107.0
X61.5Y-126.25
X64.5Y-71.75
X64.75Y-90.75
X64.75Y-109.75
X64.75Y-128.75
X64.75Y-148.0
X66.5Y-141.25
X68.5Y-109.75
X68.72Y-71.75
X68.75Y-128.75
X68.75Y-148.0
X68.77Y-90.75
X70.25Y-87.5
X70.25Y-125.75
X70.298Y-63.952
X70.5Y-107.0
X70.5Y-144.5
X70.75Y-67.75
X70.95Y-84.0
X71.0Y-103.25
X71.25Y-122.25
X71.25Y-160.25
X71.75Y-141.5
X77.5Y-98.75
X77.5Y-118.0
X77.5Y-136.75
X77.5Y-156.0
X78.0Y-79.75
X80.188Y-68.75
X80.5Y-88.0
X80.5Y-107.0
X80.5Y-125.75
X80.5Y-145.25
X83.68Y-71.75
X83.75Y-90.75
X83.75Y-109.75
X83.75Y-129.0
X83.75Y-147.75
X85.825Y-122.425
X87.5Y-71.75
X87.75Y-90.75
X87.75Y-109.75
X87.75Y-147.75
X87.92Y-128.75
X88.75Y-65.25
X89.25Y-87.25
X89.35Y-144.4
X89.55Y-106.45
X89.675Y-83.925
X89.75Y-140.9
X89.95Y-103.0
X90.0Y-122.0
X90.0Y-125.0
X90.0Y-160.2
X96.5Y-79.75
X96.75Y-117.75
X96.75Y-137.0
X96.75Y-156.0
X97.0Y-98.75
X99.5Y-68.75
X99.5Y-87.75
X99.5Y-125.75
X99.75Y-107.0
X99.75Y-145.25
X102.75Y-90.75
X102.75Y-109.75
X102.75Y-128.75
X102.75Y-147.97
X103.0Y-56.45
X103.0Y-71.5
X104.875Y-103.125
X106.75Y-71.5
X106.75Y-119.445
X106.87Y-90.75
X107.75Y-65.0
X108.925Y-131.5
X109.0Y-83.95
X109.0Y-87.25
X109.0Y-103.0
X109.0Y-115.0
X115.75Y-79.75
X115.75Y-98.75
X116.0Y-51.5
X116.0Y-53.0
X116.0Y-127.25
X118.25Y-116.5
X118.75Y-69.0
X118.75Y-88.0
X120.5Y-51.5
X120.5Y-53.0
X121.73Y-90.75
X121.75Y-71.72
X121.75Y-119.345
X122.45Y-58.3
X123.5Y-84.75
T2
X97.55Y-68.0
X103.55Y-68.0
X83.5Y-168.7
X83.5Y-174.7
X97.55Y-124.876
X103.55Y-124.876
X78.45Y-68.0
X84.45Y-68.0
X116.45Y-86.96
X122.45Y-86.96
X78.45Y-86.96
X84.45Y-86.96
X111.25Y-143.45
X117.25Y-143.45
X78.45Y-124.876
X84.45Y-124.876
X97.55Y-106.08
X103.55Y-106.08
X59.35Y-125.13
X65.35Y-125.13
X97.55Y-144.18
X103.55Y-144.18
X93.2Y-47.088
X93.2Y-62.308
X95.74Y-47.088
X95.74Y-62.308
X98.28Y-47.088
X98.28Y-62.308
X100.82Y-47.088
X100.82Y-62.308
X103.36Y-47.088
X103.36Y-62.308
X105.9Y-47.088
X105.9Y-62.308
X108.44Y-47.088
X108.44Y-62.308
X110.98Y-47.088
X110.98Y-62.308
X113.52Y-47.088
X113.52Y-62.308
X116.06Y-47.088
X116.06Y-62.308
X118.6Y-47.088
X118.6Y-62.308
X121.14Y-47.088
X121.14Y-62.308
X97.55Y-86.96
X103.55Y-86.96
X59.35Y-68.0
X65.35Y-68.0
X78.45Y-144.18
X84.45Y-144.18
X59.35Y-144.18
X65.35Y-144.18
X59.35Y-86.96
X65.35Y-86.96
X78.45Y-106.08
X84.45Y-106.08
X116.45Y-115.6
X122.45Y-115.6
X116.45Y-68.0
X122.45Y-68.0
X97.55Y-163.3
X103.55Y-163.3
X59.35Y-106.08
X65.35Y-106.08
T3
X81.0Y-52.2
X87.5Y-52.2
T0
M30
